<?xml version="1.0" standalone="no"?>
<!DOCTYPE svg PUBLIC "-//W3C//DTD SVG 20010904//EN"
 "http://www.w3.org/TR/2001/REC-SVG-20010904/DTD/svg10.dtd">
<svg version="1.0" xmlns="http://www.w3.org/2000/svg"
 width="700.000000pt" height="700.000000pt" viewBox="0 0 700.000000 700.000000"
 preserveAspectRatio="xMidYMid meet">
<metadata>
Created by potrace 1.14, written by Peter Selinger 2001-2017
</metadata>
<g transform="translate(0.000000,700.000000) scale(0.100000,-0.100000)"
fill="#000000" stroke="none">
<path d="M4938 6635 c-1 -1 -40 -6 -86 -9 -74 -6 -286 -36 -367 -51 -133 -26
-304 -58 -325 -61 -58 -10 -235 -47 -239 -50 -4 -3 -7 -40 -15 -159 -3 -49 -8
-119 -11 -155 -2 -36 -7 -101 -9 -145 -3 -44 -8 -120 -12 -170 -5 -80 0 -111
10 -59 2 11 14 55 26 99 12 44 23 87 25 95 22 98 89 349 96 361 8 16 185 89
309 128 225 70 426 103 650 105 237 2 373 -18 556 -79 139 -47 327 -153 416
-237 37 -34 36 -48 -20 -268 -22 -85 -52 -207 -67 -270 -70 -292 -233 -697
-353 -880 -48 -73 -137 -161 -187 -185 -125 -58 -250 14 -375 218 -65 105 -97
189 -170 447 -112 392 -150 463 -303 568 -26 17 -50 32 -53 32 -3 0 -32 18
-66 41 -33 23 -64 37 -68 33 -4 -5 -51 -80 -104 -166 l-95 -157 28 -21 c36
-25 38 -25 87 -1 83 40 175 81 182 81 10 0 133 -191 312 -485 400 -655 447
-727 511 -768 36 -24 96 -28 141 -10 71 29 117 96 268 402 78 157 146 295 150
306 5 11 26 61 48 110 22 50 43 101 47 115 4 14 11 30 15 35 27 35 182 483
243 701 l34 121 -61 50 c-200 164 -435 272 -699 319 -79 14 -457 30 -469 19z"/>
<path d="M1932 5958 c67 -84 167 -199 222 -254 144 -144 245 -205 367 -220 40
-5 48 -2 84 31 51 45 133 85 193 92 47 6 67 6 282 3 63 0 126 1 140 4 46 10
75 16 110 21 30 5 76 13 165 30 11 2 49 9 85 15 108 19 113 19 175 31 33 7 68
11 78 11 9 0 17 3 17 7 0 3 -250 7 -555 6 l-555 0 -63 -81 c-102 -128 -170
-153 -258 -95 -24 17 -98 85 -164 151 -109 111 -427 400 -440 400 -2 0 50 -69
117 -152z"/>
<path d="M1843 5558 c-95 -82 -91 -73 -113 -248 -8 -68 -6 -393 4 -465 8 -55
18 -278 18 -380 0 -259 -52 -449 -166 -608 -69 -97 -228 -240 -245 -221 -4 5
-48 61 -96 124 -49 63 -144 186 -212 272 l-123 157 -39 -42 -39 -41 56 -71
c401 -506 590 -600 717 -356 34 67 67 179 166 566 56 215 102 397 104 405 2 8
21 78 44 155 43 151 78 294 87 359 4 23 8 52 10 66 11 67 5 219 -9 246 -15 29
-103 114 -118 114 -5 0 -25 -15 -46 -32z"/>
<path d="M4905 4148 c11 -135 79 -212 226 -257 64 -20 169 -54 205 -68 10 -4
-76 340 -88 352 -3 3 -11 -7 -19 -22 -31 -62 -63 -113 -71 -113 -5 0 -32 17
-61 38 -83 61 -186 132 -192 132 -3 0 -3 -28 0 -62z"/>
<path d="M4196 4184 c-66 -24 -158 -104 -216 -189 -31 -46 -29 -58 20 -130 16
-24 30 -48 30 -53 0 -6 4 -12 8 -14 4 -1 22 -26 38 -53 30 -49 31 -52 17 -95
-29 -95 -33 -88 57 -88 98 0 149 11 218 45 132 65 193 225 146 383 -49 165
-180 245 -318 194z"/>
<path d="M2630 3861 c-74 -46 -149 -121 -178 -175 -25 -47 -27 -60 -27 -166 0
-63 2 -128 5 -145 10 -62 91 -102 185 -92 68 7 136 32 298 112 l137 68 -92 96
c-105 109 -117 122 -211 244 -38 48 -69 87 -70 87 -1 0 -22 -13 -47 -29z"/>
<path d="M5160 3569 c-58 -103 -69 -143 -50 -191 53 -134 143 -330 253 -548
64 -126 70 -133 47 -55 -27 91 -81 306 -85 340 -3 22 -8 47 -10 55 -6 23 -14
109 -15 170 -3 102 -2 108 22 112 12 2 23 8 24 13 2 6 -28 52 -65 103 l-69 92
-52 -91z"/>
<path d="M5385 2611 l-50 -28 0 -359 0 -359 35 3 c83 7 135 70 132 161 -2 61
-3 66 -20 126 -15 53 -24 191 -31 448 -1 20 -4 37 -8 37 -5 -1 -30 -13 -58
-29z"/>
<path d="M3765 2354 c-425 -170 -572 -313 -495 -482 21 -46 117 -145 212 -218
31 -25 128 -90 215 -147 87 -56 176 -115 198 -130 22 -15 43 -27 48 -27 4 0
41 28 81 63 40 34 95 81 122 104 114 95 159 157 199 275 71 214 54 378 -52
484 -60 60 -205 108 -358 118 -53 3 -74 -1 -170 -40z m342 -68 c2 -2 -115 -75
-259 -162 -145 -87 -316 -191 -380 -230 -78 -49 -118 -68 -118 -58 0 26 38
127 66 178 82 147 270 256 469 273 38 3 71 6 72 7 3 2 147 -5 150 -8z"/>
<path d="M5003 1728 c-57 -110 -263 -533 -266 -547 -3 -13 -10 13 -32 114 -1
6 -6 33 -10 60 -5 28 -10 53 -11 58 -1 4 -2 13 -3 20 -1 6 -15 -9 -31 -35 -40
-64 -63 -91 -144 -168 -225 -214 -260 -267 -260 -395 0 -46 14 -105 24 -105 6
0 10 4 10 9 0 16 93 112 146 152 29 21 104 67 166 102 207 117 260 152 322
212 34 33 73 79 86 103 13 23 27 42 31 42 4 0 15 -26 24 -57 9 -32 34 -114 55
-183 110 -353 201 -675 197 -694 -2 -11 -8 -29 -12 -38 -6 -16 -1 -18 44 -18
58 0 56 -11 26 110 -9 36 -18 74 -21 85 -2 11 -28 135 -58 275 -30 140 -73
350 -96 465 -24 116 -46 216 -50 223 -4 9 -23 -14 -55 -67 -27 -44 -51 -79
-52 -77 -2 1 -3 91 -3 199 -1 109 -2 197 -3 197 -1 0 -12 -19 -24 -42z"/>
</g>
</svg>
