
    <svg width="100%" height="100%" xmlns="http://www.w3.org/2000/svg" viewBox="0 0 512 512">
	 <rect x="0" y="0" width="512" height="512" fill="#F2A649"/>
	<path fill="#202359" d="M379.43,429.13,388.35,415c6.65,31,12.59,63.61,20.28,95h-8.77c1-1.9,3.14-4.15,2.71-5.64-7.41-25.31-15.13-50.52-22.79-75.75Z"/>
		  <path fill="#202359" d="M285.7,75.87c1.39-20.82,2.79-41.65,4-59C353.75,4.79,417.43-14.23,471.3,34.61c-11.57,45.6-31.75,91.67-54.2,133.54-6.41,12-18.74,18.61-29.05,3.12C367.16,140,350,108.11,328.78,76.68l-19.21,8.86-5.13-3.61L320.85,55c9.2,6.78,21.74,11.69,26.83,20.77,10.37,18.72,12.61,41.88,21.18,61.7,17.92,35.51,35.64,37.86,54.65,4.65,11.72-23.2,21.79-49.5,26.76-75.32,2-11,9.4-28.54,5.3-31.83C412.08-3.34,346.08,5.31,298.62,26.77,294,44.81,290,60.5,285.92,76.2Z"/>
		  <path fill="#202359" d="M286.08,345.63c38.7.61,48.18,19.16,37.63,50.34-6,17.67-20.26,22.55-30.42,33.53-.46.5-1.6,1.15-1.87.95-17.71-12.57-38.43-22.63-52-38.69C221.54,366.83,271.7,352.05,286.08,345.63Zm-42.46,46.51c22.14-13.37,40.44-24.42,62.28-37.59C272.07,350.91,248.4,364.58,243.62,392.14Z"/>
		  <path fill="#202359" d="M46.92,200.76l35.33,45.41c54.68-37.23,21.92-95.63,32.49-146.86.41-4.46,7.35-8.32,11.29-12.45,3.64,4,9.72,7.67,10.38,12.13,2.45,24.12-7.8,47.72-13.1,71C102.8,241.51,106.6,294.18,40.7,207.18Z"/>
		  <path fill="#202359" d="M301.89,251,305,240.6c-5.91-10.11-13.71-19.48-12.14-21.46C333.21,158.94,368.86,259.64,301.89,251Z"/>
		  <path fill="#202359" d="M220.07,259.35c-14,5-37.23,24-50.12,9.58-3.52-23.88-1.22-31.48,19.72-44.3C199.3,237.6,207.42,248.22,220.07,259.35Z"/>
		  <path fill="#202359" d="M379.78,428.59C368,455.77,332.66,456.07,317.93,481c-9.17-30.11,23.2-34.95,33.15-59.1,1.68,9.11,2.25,12.2,4.16,22.59l24.07-49.09c0,9.66,0,21.79.06,33.84C379.43,429.13,379.78,428.59,379.78,428.59Z"/>
		  <path fill="#202359" d="M285.92,76.2c-17.83,3.21-35.63,6.51-53.48,9.59-17,2.93-36.25-6.68-51.29,10.74-25.52,1-47-33.88-63.17-52.9,13,11.75,26.94,22.62,38.74,35.47,17.11,18.66,22.64,18.88,37.91-3.23H285.7Z"/>
		  <path fill="#202359" d="M413.73,325.47c-9.73-20.29-20.43-40.21-28.44-61.15-1.87-4.88,5.38-13.24,8.86-20.93,4.19,5.74,8,10.93,11.78,16.12l-4.79,1.11c-1.22,22.65,5.84,43.72,12.09,65.13Z"/>
		  <path fill="#202359" d="M413.23,325.75c1.2,12.23.28,25.19,2.15,37.18,4.62,14.32,3.42,24.84-11.4,26.21V330.49C404.91,330.05,412.34,326.11,413.23,325.75Z"/>
		  <path fill="#202359" d="M369.41,198.76l20.94,14.71,7-12.53c3.27,12.14,5.68,21.07,8.09,30C391.53,223.09,368.11,227.85,369.41,198.76Z"/>
		     

    </svg>